<?xml version="1.0" encoding="UTF-8" standalone="no"?>
<svg
   viewBox="0 0 48 48"
   width="48px"
   height="48px"
   version="1.1"
   id="svg1"
   sodipodi:docname="arch-icon.svg"
   inkscape:version="1.4.3 (0d15f75042, 2025-12-25)"
   xmlns:inkscape="http://www.inkscape.org/namespaces/inkscape"
   xmlns:sodipodi="http://sodipodi.sourceforge.net/DTD/sodipodi-0.dtd"
   xmlns="http://www.w3.org/2000/svg"
   xmlns:svg="http://www.w3.org/2000/svg">
  <defs
     id="defs1" />
  <sodipodi:namedview
     id="namedview1"
     pagecolor="#ffffff"
     bordercolor="#000000"
     borderopacity="0.25"
     inkscape:showpageshadow="2"
     inkscape:pageopacity="0.0"
     inkscape:pagecheckerboard="0"
     inkscape:deskcolor="#d1d1d1"
     inkscape:zoom="9.2003876"
     inkscape:cx="-6.7388465"
     inkscape:cy="15.868897"
     inkscape:window-width="1874"
     inkscape:window-height="1000"
     inkscape:window-x="0"
     inkscape:window-y="0"
     inkscape:window-maximized="1"
     inkscape:current-layer="svg1" />
  <path
     fill="#1e88e5"
     d="M28.465,38.611c0.419-1.105,0.664-2.365,0.664-3.714c0-4.133-2.211-7.494-4.929-7.494 c-2.741,0-4.951,3.361-4.951,7.494c0,1.326,0.221,2.586,0.641,3.669c-9.041,0.951-15.407,4.731-17.993,6.432 c4.355-6.278,8.909-13.638,13.262-22.105c1.083-2.101,2.101-4.178,3.05-6.211c0.375,0.243,0.751,0.509,1.171,0.775 c1.945,1.215,3.759,1.879,5.084,2.233c-0.973-0.73-2.033-1.613-3.116-2.697c-0.817-0.817-1.547-1.637-2.167-2.433 C21.016,10.538,22.608,6.669,24,3c2.32,6.144,5.217,12.842,8.841,19.893c2.343,4.531,4.731,8.754,7.117,12.644 c-0.685-0.375-1.437-0.73-2.233-1.039c-1.371-0.53-2.652-0.862-3.759-1.06c1.503,0.751,3.25,1.747,5.084,3.073 c1.194,0.885,2.254,1.769,3.161,2.631c0.021,0.021,0.021,0.021,0.045,0.045c1.26,2.056,2.565,3.957,3.846,5.813 C43.561,43.319,37.306,39.605,28.465,38.611z"
     id="path1" />
  <path
     style="fill:#d40000;stroke-width:0.0566038"
     d="m 2.0660377,44.829389 c 0,-0.01073 0.2598148,-0.397009 0.5773662,-0.858408 3.8911071,-5.65373 8.0284351,-12.510809 11.5033651,-19.065321 0.744097,-1.403535 3.016777,-5.931818 3.657959,-7.288431 l 0.421687,-0.892205 0.633144,0.423522 c 1.534553,1.026494 3.117684,1.790876 4.868167,2.350495 0.393026,0.125648 0.727572,0.215473 0.743434,0.199611 0.01586,-0.01586 0.01823,-0.03663 0.0053,-0.04614 -1.495254,-1.096801 -3.474413,-2.95551 -4.664232,-4.380371 L 19.2205,14.563522 19.29712,14.385534 c 0.04214,-0.09789 0.349497,-0.789308 0.683009,-1.536477 1.135136,-2.54306 2.657715,-6.2288073 3.897824,-9.4355704 l 0.124663,-0.3223625 0.559182,1.454438 c 3.750776,9.7558049 8.890578,20.2439639 14.456242,29.4990699 0.439119,0.730209 0.790135,1.335914 0.780036,1.346014 -0.0101,0.0101 -0.279386,-0.111397 -0.598415,-0.26999 -1.193115,-0.593111 -2.582884,-1.094758 -3.992072,-1.440969 -1.400273,-0.34402 -1.42673,-0.332491 -0.45283,0.197326 2.761938,1.502541 4.685847,2.839632 6.860622,4.76804 0.50654,0.449157 0.634934,0.603478 1.043577,1.254314 0.513726,0.818199 2.138039,3.266616 2.831983,4.268804 0.243685,0.351927 0.443063,0.650647 0.443063,0.663822 0,0.01318 -0.222877,-0.119865 -0.495283,-0.295644 -1.405467,-0.906926 -3.929102,-2.229852 -5.637414,-2.955216 -3.293832,-1.398588 -6.879534,-2.401783 -10.140888,-2.837182 -0.498113,-0.0665 -0.961555,-0.131742 -1.029871,-0.144982 l -0.12421,-0.02407 0.112181,-0.325183 c 0.353023,-1.023327 0.513218,-2.075412 0.514924,-3.381787 0.0047,-3.568404 -1.577169,-6.531097 -3.91642,-7.33528 -0.487115,-0.167458 -1.446598,-0.182294 -1.95283,-0.03019 -1.90402,0.572074 -3.360344,2.641267 -3.889161,5.52585 -0.09749,0.531799 -0.119334,0.873693 -0.119334,1.867924 0,1.345895 0.08764,2.012288 0.403992,3.072003 0.09082,0.304223 0.149364,0.561965 0.130098,0.572759 -0.01927,0.01079 -0.200595,0.03688 -0.402954,0.05796 -1.268564,0.132182 -3.314346,0.49933 -4.79757,0.861002 -4.139025,1.009265 -8.2774648,2.739007 -11.7731843,4.920833 -0.4125,0.257459 -0.75,0.459331 -0.75,0.448604 z"
     id="path2" />
  <path
     style="fill:#ff0000;stroke-width:0.00390625"
     d="m 34.344275,25.793945 c -0.0098,-0.01567 -0.326562,-0.611973 -0.532714,-1.002929 -0.626439,-1.188009 -1.242604,-2.385006 -1.792607,-3.482422 -0.108752,-0.216992 -0.202058,-0.402002 -0.207346,-0.411133 -0.0094,-0.01614 -0.0094,-0.0166 -0.0017,-0.0166 0.0066,0 0.03401,0.05173 0.162953,0.307618 0.449388,0.891818 0.695368,1.375094 0.963789,1.893554 0.409782,0.791503 0.887499,1.698282 1.323573,2.512341 0.05773,0.107764 0.106031,0.198731 0.107342,0.202149 0.0039,0.01024 -0.01671,0.008 -0.02332,-0.0026 z"
     id="path3" />
  <path
     style="fill:#ff0000;stroke-width:0.00786338"
     d="M 24.349887,19.598526 C 23.741299,19.134105 23.251531,18.73504 22.725179,18.274709 21.723801,17.398935 20.707393,16.37296 19.862131,15.38471 c -0.270507,-0.316266 -0.671543,-0.809984 -0.671543,-0.826739 0,-0.0048 0.08283,-0.191343 0.184073,-0.414641 0.35524,-0.783529 0.644495,-1.433325 1.024187,-2.300777 0.122976,-0.280953 0.2252,-0.512431 0.227166,-0.514396 0.002,-0.002 0.0057,-0.0014 0.0084,0.0013 0.0077,0.0077 -0.26492,0.631966 -0.911863,2.087894 -0.538584,1.21207 -0.508653,1.142409 -0.497509,1.157886 0.0253,0.03514 0.735637,0.880479 0.838818,0.998237 1.158511,1.322193 2.839811,2.894375 4.18681,3.915082 0.103797,0.07865 0.199042,0.150983 0.211656,0.160731 0.01699,0.01313 0.02107,0.02082 0.01573,0.02966 -0.0059,0.0097 -0.0296,-0.0052 -0.128171,-0.08038 z"
     id="path4" />
  <path
     style="fill:#ff0000;stroke-width:0.00786338"
     d="m 24.266402,19.653679 c -0.264573,-0.06992 -0.679911,-0.200958 -1.061557,-0.334922 -1.442582,-0.506371 -2.751755,-1.147228 -4.049642,-1.98235 -0.103797,-0.06679 -0.354691,-0.232632 -0.557542,-0.368542 -0.202851,-0.135911 -0.371494,-0.244292 -0.374762,-0.240847 -0.0033,0.0034 -0.09784,0.200881 -0.210161,0.438749 -0.11232,0.237867 -0.241376,0.510333 -0.286789,0.60548 -0.267875,0.561229 -0.880711,1.802393 -0.884434,1.791225 -0.0013,-0.0039 0.0565,-0.12721 0.128453,-0.27402 0.263141,-0.536927 0.691227,-1.431171 1.03498,-2.162002 0.103746,-0.220568 0.192991,-0.409393 0.198323,-0.419611 0.0096,-0.01836 0.01531,-0.01482 0.484744,0.299144 0.54303,0.363187 0.653574,0.434617 0.943836,0.609876 1.451037,0.876126 2.972854,1.544793 4.551986,2.000084 0.244311,0.07044 0.296398,0.09424 0.08256,0.03774 z"
     id="path5" />
  <path
     style="fill:#ff0000;stroke-width:0.00435438"
     d="m 37.613684,31.661789 c -0.0099,-0.01568 -0.132773,-0.227909 -0.301889,-0.521437 -0.865481,-1.50218 -1.739288,-3.068403 -2.56174,-4.591694 -0.05819,-0.107771 -0.125907,-0.233177 -0.150488,-0.27868 -0.0438,-0.08107 -0.04447,-0.08276 -0.03375,-0.08415 0.006,-7.79e-4 0.01141,-7.79e-4 0.01198,0 5.74e-4,7.79e-4 0.05553,0.102329 0.122129,0.225667 0.871251,1.613561 2.004812,3.637347 2.883332,5.14771 0.0344,0.05913 0.06254,0.10861 0.06254,0.109948 0,0.0013 -0.0058,0.0024 -0.01296,0.0024 -0.0087,0 -0.01499,-0.0032 -0.01915,-0.0098 z"
     id="path6" />
  <path
     style="fill:#ff0000;stroke-width:0.00435438"
     d="m 38.734392,34.921535 c -0.01796,-0.0084 -0.0934,-0.04234 -0.167644,-0.07543 -1.209444,-0.539057 -2.595818,-0.990206 -3.92112,-1.275996 -0.132921,-0.02866 -0.498056,-0.101982 -0.532376,-0.106901 -0.02629,-0.0038 -0.02995,-0.0093 -0.0088,-0.01336 0.02283,-0.0043 0.103379,0.0043 0.188568,0.02025 0.161774,0.03027 0.546957,0.120217 0.99921,0.233325 1.15039,0.287713 2.296868,0.682467 3.325484,1.145028 0.160865,0.07234 0.155843,0.06975 0.155843,0.08033 0,0.01098 -3.57e-4,0.01092 -0.03919,-0.0072 z"
     id="path7" />
  <path
     style="fill:#ff0000;stroke-width:0.00435438"
     d="m 38.71262,36.314881 c -0.271978,-0.195385 -0.709726,-0.494782 -1.021102,-0.698382 -0.900927,-0.589089 -1.743258,-1.089102 -2.917435,-1.731808 -0.354439,-0.194008 -0.549334,-0.304478 -0.544934,-0.308879 0.0034,-0.0034 0.465624,0.237392 0.756121,0.393804 1.204022,0.648276 2.348977,1.348831 3.459555,2.11677 0.11367,0.0786 0.3174,0.221078 0.327925,0.229333 7.41e-4,5.8e-4 7.41e-4,0.01013 0,0.02122 l -0.0013,0.02017 z"
     id="path8" />
  <path
     style="fill:#ff0000;stroke-width:0.00435438"
     d="m 38.653836,41.141695 c -0.255946,-0.101799 -0.664559,-0.256223 -0.992799,-0.3752 -2.051918,-0.743759 -4.150334,-1.31847 -6.275703,-1.718781 -0.101159,-0.01905 -0.184926,-0.03464 -0.18615,-0.03464 -0.0012,0 -0.0022,-0.0049 -0.0022,-0.01089 0,-0.0076 0.0024,-0.01089 0.0078,-0.01089 0.01357,0 0.393926,0.07225 0.640977,0.12175 2.149017,0.430612 4.386797,1.080139 6.5113,1.88994 0.398987,0.152083 0.414157,0.158337 0.41572,0.171401 8.94e-4,0.0075 -6.34e-4,0.01136 -0.0044,0.01106 -0.0032,-2.51e-4 -0.05472,-0.01994 -0.114591,-0.04376 z"
     id="path9" />
  <path
     style="fill:#ff0000;stroke-width:0.00435438"
     d="m 45.271245,43.843169 c -0.299904,-0.437743 -0.965319,-1.431256 -1.464756,-2.186988 -0.582924,-0.882062 -0.883554,-1.343998 -1.181717,-1.815777 -0.102911,-0.162835 -0.224202,-0.346366 -0.285703,-0.432311 -0.197104,-0.275443 -0.366333,-0.451486 -0.810254,-0.842879 -0.06885,-0.06071 -0.125188,-0.111159 -0.125188,-0.112116 0,-9.58e-4 0.01127,-0.0017 0.02504,-0.0017 l 0.02504,5.4e-5 0.09797,0.0876 c 0.280295,0.250609 0.670502,0.611656 0.697058,0.644968 0.0062,0.0078 0.05893,0.0915 0.117218,0.186101 0.76806,1.246578 1.66039,2.607777 2.830237,4.317369 0.09013,0.13172 0.165356,0.24194 0.167159,0.244933 0.0024,0.0039 -9.25e-4,0.0054 -0.01197,0.0054 -0.01497,0 -0.01642,-0.0017 -0.08013,-0.09471 z"
     id="path10" />
  <path
     style="fill:#ff0000;stroke-width:0.00653317"
     d="m 39.806579,35.451072 c -0.160094,-0.08692 -0.716147,-0.365994 -0.896677,-0.450033 -0.07276,-0.03387 -0.132297,-0.06513 -0.132297,-0.06946 0,-0.0106 0.0065,-0.0077 0.256256,0.113121 0.422962,0.204654 0.545872,0.26302 0.636476,0.302241 0.08885,0.03846 0.132975,0.05299 0.132975,0.04378 0,-0.02313 -0.30084,-0.543318 -0.71064,-1.228791 -0.141779,-0.237154 -0.261918,-0.437804 -0.266975,-0.445889 -0.0084,-0.01338 -0.008,-0.0147 0.0037,-0.0147 0.01,0 0.05322,0.06727 0.194101,0.302158 0.210248,0.350529 0.560568,0.929076 0.771605,1.274288 0.08083,0.132228 0.14589,0.241273 0.144569,0.242321 -0.0013,10e-4 -0.0612,-0.03001 -0.133065,-0.06903 z"
     id="path11" />
  <path
     style="fill:#ff0000;stroke-width:0.00653317"
     d="m 41.35778,38.413164 c -0.834826,-0.726943 -1.649651,-1.379602 -2.415212,-1.93454 -0.152863,-0.110807 -0.164963,-0.121027 -0.164963,-0.139333 0,-0.01492 0.002,-0.01816 0.0082,-0.01325 0.0045,0.0036 0.06594,0.04778 0.136545,0.09822 0.68324,0.488115 1.816007,1.394232 2.470132,1.975895 l 0.05711,0.05078 -0.02444,-2.17e-4 c -0.02023,-1.79e-4 -0.03183,-0.0067 -0.06733,-0.03757 z"
     id="path12" />
  <path
     style="fill:#ff0000;stroke-width:0.00390625"
     d="m 31.164062,39.007228 c -0.09883,-0.01999 -0.622191,-0.109838 -0.871093,-0.149539 -0.547217,-0.08728 -1.200209,-0.177073 -1.713234,-0.235579 l -0.111671,-0.01273 0.03464,-0.09375 c 0.108498,-0.293649 0.227342,-0.679577 0.308245,-1.000977 l 0.02089,-0.08301 h 0.01084 c 0.006,0 0.01084,0.0019 0.01084,0.0043 0,0.0086 -0.05245,0.211675 -0.08063,0.31215 -0.0564,0.201126 -0.111984,0.373524 -0.235885,0.731593 -0.01768,0.05111 -0.03115,0.09393 -0.02992,0.09516 0.0012,0.0012 0.0142,0.0047 0.02882,0.0078 0.115395,0.02422 0.328534,0.05539 1.022681,0.149593 0.601979,0.08169 1.008051,0.144373 1.49861,0.231329 l 0.139235,0.02468 -3.61e-4,0.01273 c -1.98e-4,0.007 -0.0013,0.01252 -0.0025,0.01227 -0.0012,-2.51e-4 -0.01446,-0.0029 -0.0295,-0.006 z"
     id="path13" />
  <path
     style="fill:#ff0000;stroke-width:0.00512625"
     d="m 15.042982,39.366581 c 0,-0.01154 -0.0091,-0.0091 0.222992,-0.06051 1.397911,-0.309859 3.008748,-0.585145 4.126631,-0.705228 0.138473,-0.01487 0.329113,-0.0407 0.371653,-0.05035 l 0.02819,-0.0064 0.0016,-0.02205 c 0.0039,-0.05445 -0.04685,-0.264442 -0.145634,-0.60224 -0.106866,-0.365418 -0.173727,-0.631275 -0.229711,-0.913396 -0.01659,-0.0836 -0.04915,-0.266076 -0.04916,-0.275536 -4e-6,-0.0021 0.0053,-0.0038 0.0119,-0.0038 0.01139,0 0.01252,0.0036 0.02602,0.0833 0.09232,0.544699 0.246824,1.126511 0.433692,1.633129 0.02322,0.06296 0.04022,0.116256 0.03777,0.118432 -0.0024,0.0022 -0.06443,0.01025 -0.137735,0.01794 -1.439138,0.150947 -3.154234,0.439868 -4.622596,0.778713 -0.07039,0.01624 -0.07561,0.0168 -0.07561,0.008 z"
     id="path14" />
  <path
     style="fill:#ff0000;stroke-width:0.00428968"
     d="m 28.940922,32.8321 c -0.323486,-1.725752 -1.065705,-3.246015 -2.064554,-4.228762 -0.363423,-0.357565 -0.731287,-0.625053 -1.140463,-0.829276 -0.205194,-0.102414 -0.385558,-0.173641 -0.617713,-0.24394 -0.0131,-0.004 -0.0097,-0.0046 0.02649,-0.005 0.03877,-4.09e-4 0.04526,8.61e-4 0.09866,0.01933 0.08557,0.0296 0.227144,0.08635 0.32113,0.12873 0.415505,0.187355 0.805762,0.445262 1.177361,0.778076 0.07819,0.07003 0.298137,0.288552 0.371856,0.369447 0.688062,0.755045 1.225262,1.745518 1.575069,2.904069 0.104533,0.346206 0.199078,0.742111 0.266373,1.115423 0.01758,0.09751 0.01671,0.08947 0.0096,0.08947 -0.0038,0 -0.01118,-0.03001 -0.02385,-0.09759 z"
     id="path15" />
  <path
     style="fill:#ff0000;stroke-width:0.00472273"
     d="m 25.028131,27.506844 c -0.130374,-0.0345 -0.295981,-0.06569 -0.44636,-0.08405 -0.09658,-0.01179 -0.05671,-0.01189 0.05802,-1.47e-4 0.106627,0.01092 0.231886,0.02843 0.303638,0.04246 0.05109,0.01 0.227524,0.05253 0.225289,0.05432 -6.98e-4,5.6e-4 -0.01721,0.002 -0.03669,0.0033 -0.03047,0.0019 -0.045,-2.73e-4 -0.1039,-0.01586 z"
     id="path16" />
  <path
     style="fill:#ff0000;stroke-width:0.00472273"
     d="m 19.58509,32.106329 c 0.0011,-0.0032 0.01601,-0.05585 0.03317,-0.116888 0.289097,-1.028695 0.716354,-1.943664 1.248228,-2.673067 0.510979,-0.700749 1.103106,-1.222949 1.766367,-1.557768 0.26182,-0.132169 0.566439,-0.245608 0.780105,-0.29051 0.0905,-0.01902 0.08501,-0.01867 0.08501,-0.0054 0,0.0081 -0.0032,0.01235 -0.01063,0.01411 -0.160422,0.03798 -0.261575,0.06645 -0.383992,0.108059 -0.497969,0.169265 -0.977482,0.457765 -1.428358,0.859376 -0.08127,0.07239 -0.330692,0.321931 -0.401991,0.402184 -0.221711,0.249551 -0.388679,0.466675 -0.57433,0.746852 -0.4573,0.690143 -0.829387,1.530599 -1.073857,2.425588 -0.02048,0.07499 -0.02705,0.09323 -0.03358,0.09327 -0.0045,3.1e-5 -0.0072,-0.0026 -0.0061,-0.0058 z"
     id="path17" />
  <path
     style="fill:#ff0000;stroke-width:0.00390625"
     d="m 11.354775,29.94265 c 0.01372,-0.02182 0.413666,-0.732936 0.608153,-1.081322 0.675516,-1.210056 1.421208,-2.5807 2.047075,-3.762695 l 0.03671,-0.06934 h 0.01473 c 0.0081,0 0.01473,0.001 0.01473,0.0023 0,0.0042 -0.362465,0.68249 -0.581125,1.087509 -0.668019,1.237359 -1.317843,2.412166 -2.031033,3.671875 -0.08722,0.154047 -0.0899,0.158236 -0.102251,0.159446 -0.01238,0.0012 -0.01255,10e-4 -0.007,-0.0078 z"
     id="path18" />
  <path
     style="fill:#ff0000;stroke-width:0.00390625"
     d="m 15.337891,22.55124 c 0,-8.23e-4 0.05246,-0.104094 0.116571,-0.229493 0.39939,-0.781151 0.957828,-1.896913 1.331809,-2.660961 0.03459,-0.07067 0.05404,-0.106443 0.05553,-0.102169 0.0019,0.0054 0.0032,0.0046 0.0072,-0.0041 0.0027,-0.0059 0.006,-0.0095 0.0074,-0.0081 0.0027,0.0027 -0.927554,1.865104 -1.288464,2.579523 -0.168818,0.334175 -0.217152,0.426757 -0.222792,0.426757 -0.004,0 -0.0072,-6.72e-4 -0.0072,-0.0015 z"
     id="path19" />
  <path
     style="fill:#ff0000;stroke-width:0.00390625"
     d="m 4.5697358,41.045898 c 0.022135,-0.03384 0.079504,-0.121289 0.1274865,-0.194336 0.8986129,-1.368027 1.8844809,-2.914781 2.762389,-4.333984 0.097682,-0.15791 0.1836444,-0.297167 0.1910275,-0.309459 0.011961,-0.01992 0.014832,-0.02236 0.02635,-0.02246 0.00711,-6.1e-5 0.012161,0.0012 0.011225,0.0028 -0.015693,0.02703 -0.3037191,0.493664 -0.4960908,0.80371 -0.816631,1.31617 -1.7579987,2.792562 -2.5143401,3.94336 -0.054363,0.08272 -0.1016619,0.155214 -0.105109,0.161108 -0.00543,0.0093 -0.00874,0.01072 -0.024726,0.01074 l -0.018458,2.5e-5 z"
     id="path20" />
  <path
     style="fill:#ff0000;stroke-width:0.00532402"
     d="m 2.2227801,44.535327 c 0,-0.0015 0.1169846,-0.173438 0.2599657,-0.381999 0.6276863,-0.915582 1.4190169,-2.091677 1.9511594,-2.899861 0.088426,-0.134295 0.095882,-0.144015 0.1104735,-0.144015 0.00861,0 0.015648,0.0011 0.015648,0.0024 0,0.0032 -0.3968023,0.603622 -0.6334858,0.958584 -0.3865685,0.579751 -0.707519,1.054091 -1.2085927,1.78621 -0.1833765,0.267932 -0.3630725,0.530872 -0.3993243,0.584312 -0.059239,0.08733 -0.067428,0.09716 -0.080878,0.09716 -0.00823,0 -0.014966,-0.0013 -0.014966,-0.0028 z"
     id="path21" />
</svg>
